<svg width="114" height="37" viewBox="0 0 114 37" fill="none" xmlns="http://www.w3.org/2000/svg">
<path d="M-0.000201911 16.5966C-0.000201911 14.5806 0.395798 12.7926 1.1878 11.2326C2.0038 9.67262 3.0958 8.47262 4.4638 7.63263C5.8558 6.79262 7.4038 6.37262 9.1078 6.37262C10.5958 6.37262 11.8918 6.67262 12.9958 7.27262C14.1238 7.87262 15.0238 8.62862 15.6958 9.54062V6.69662H20.7718V26.6406H15.6958V23.7246C15.0478 24.6606 14.1478 25.4406 12.9958 26.0646C11.8678 26.6646 10.5598 26.9646 9.0718 26.9646C7.3918 26.9646 5.8558 26.5326 4.4638 25.6686C3.0958 24.8046 2.0038 23.5926 1.1878 22.0326C0.395798 20.4486 -0.000201911 18.6366 -0.000201911 16.5966ZM15.6958 16.6686C15.6958 15.4446 15.4558 14.4006 14.9758 13.5366C14.4958 12.6486 13.8478 11.9766 13.0318 11.5206C12.2158 11.0406 11.3398 10.8006 10.4038 10.8006C9.4678 10.8006 8.6038 11.0286 7.8118 11.4846C7.0198 11.9406 6.3718 12.6126 5.8678 13.5006C5.3878 14.3646 5.1478 15.3966 5.1478 16.5966C5.1478 17.7966 5.3878 18.8526 5.8678 19.7646C6.3718 20.6526 7.0198 21.3366 7.8118 21.8166C8.6278 22.2966 9.4918 22.5366 10.4038 22.5366C11.3398 22.5366 12.2158 22.3086 13.0318 21.8526C13.8478 21.3726 14.4958 20.7006 14.9758 19.8366C15.4558 18.9486 15.6958 17.8926 15.6958 16.6686ZM30.7342 9.79262C31.3822 8.73662 32.2222 7.90862 33.2542 7.30862C34.3102 6.70862 35.5102 6.40862 36.8542 6.40862V11.7006H35.5222C33.9382 11.7006 32.7382 12.0726 31.9222 12.8166C31.1302 13.5606 30.7342 14.8566 30.7342 16.7046V26.6406H25.6942V6.69662H30.7342V9.79262ZM46.1169 10.8366V20.4846C46.1169 21.1566 46.2729 21.6486 46.5849 21.9606C46.9209 22.2486 47.4729 22.3926 48.2409 22.3926H50.5809V26.6406H47.4129C43.1649 26.6406 41.0409 24.5766 41.0409 20.4486V10.8366H38.6649V6.69662H41.0409V1.76462H46.1169V6.69662H50.5809V10.8366H46.1169ZM67.8241 0.000624657V26.6406H62.7841V0.000624657H67.8241ZM80.9396 26.9646C79.0196 26.9646 77.2916 26.5446 75.7556 25.7046C74.2196 24.8406 73.0076 23.6286 72.1196 22.0686C71.2556 20.5086 70.8236 18.7086 70.8236 16.6686C70.8236 14.6286 71.2676 12.8286 72.1556 11.2686C73.0676 9.70862 74.3036 8.50862 75.8636 7.66862C77.4236 6.80462 79.1636 6.37262 81.0836 6.37262C83.0036 6.37262 84.7436 6.80462 86.3036 7.66862C87.8636 8.50862 89.0876 9.70862 89.9756 11.2686C90.8876 12.8286 91.3436 14.6286 91.3436 16.6686C91.3436 18.7086 90.8756 20.5086 89.9396 22.0686C89.0276 23.6286 87.7796 24.8406 86.1956 25.7046C84.6356 26.5446 82.8836 26.9646 80.9396 26.9646ZM80.9396 22.5726C81.8516 22.5726 82.7036 22.3566 83.4956 21.9246C84.3116 21.4686 84.9596 20.7966 85.4396 19.9086C85.9196 19.0206 86.1596 17.9406 86.1596 16.6686C86.1596 14.7726 85.6556 13.3206 84.6476 12.3126C83.6636 11.2806 82.4516 10.7646 81.0116 10.7646C79.5716 10.7646 78.3596 11.2806 77.3756 12.3126C76.4156 13.3206 75.9356 14.7726 75.9356 16.6686C75.9356 18.5646 76.4036 20.0286 77.3396 21.0606C78.2996 22.0686 79.4996 22.5726 80.9396 22.5726ZM102.133 6.37262C103.621 6.37262 104.929 6.67262 106.057 7.27262C107.185 7.84862 108.073 8.60462 108.721 9.54062V6.69662H113.797V26.7846C113.797 28.6326 113.425 30.2766 112.681 31.7166C111.937 33.1806 110.821 34.3326 109.333 35.1726C107.845 36.0366 106.045 36.4686 103.933 36.4686C101.101 36.4686 98.7726 35.8086 96.9486 34.4886C95.1486 33.1686 94.1286 31.3686 93.8886 29.0886H98.8926C99.1566 30.0006 99.7206 30.7206 100.585 31.2486C101.473 31.8006 102.541 32.0766 103.789 32.0766C105.253 32.0766 106.441 31.6326 107.353 30.7446C108.265 29.8806 108.721 28.5606 108.721 26.7846V23.6886C108.073 24.6246 107.173 25.4046 106.021 26.0286C104.893 26.6526 103.597 26.9646 102.133 26.9646C100.453 26.9646 98.9166 26.5326 97.5246 25.6686C96.1326 24.8046 95.0286 23.5926 94.2126 22.0326C93.4206 20.4486 93.0246 18.6366 93.0246 16.5966C93.0246 14.5806 93.4206 12.7926 94.2126 11.2326C95.0286 9.67262 96.1206 8.47262 97.4886 7.63263C98.8806 6.79262 100.429 6.37262 102.133 6.37262ZM108.721 16.6686C108.721 15.4446 108.481 14.4006 108.001 13.5366C107.521 12.6486 106.873 11.9766 106.057 11.5206C105.241 11.0406 104.365 10.8006 103.429 10.8006C102.493 10.8006 101.629 11.0286 100.837 11.4846C100.045 11.9406 99.3966 12.6126 98.8926 13.5006C98.4126 14.3646 98.1726 15.3966 98.1726 16.5966C98.1726 17.7966 98.4126 18.8526 98.8926 19.7646C99.3966 20.6526 100.045 21.3366 100.837 21.8166C101.653 22.2966 102.517 22.5366 103.429 22.5366C104.365 22.5366 105.241 22.3086 106.057 21.8526C106.873 21.3726 107.521 20.7006 108.001 19.8366C108.481 18.9486 108.721 17.8926 108.721 16.6686Z" fill="#6C68D9"/>
</svg>
