<svg width="24" height="24" viewBox="0 0 24 24" fill="none" xmlns="http://www.w3.org/2000/svg">
  <circle cx="12" cy="12" r="10" fill="#D4D4D8"/>
  <g transform="translate(6.75 6.75)">
    <path d="M5.25 0C5.66386 0.000241907 5.99976 0.336142 6 0.75V4.49707L9.75 4.49609C10.1637 4.49633 10.4996 4.83234 10.5 5.24609C10.5 5.66001 10.1639 5.99567 9.75 5.99609L6 5.99707V9.75C6 10.1641 5.66401 10.4998 5.25 10.5C4.83579 10.5 4.5 10.1642 4.5 9.75V5.99805L0.75 6C0.335936 6 0.00017973 5.66411 0 5.25C0.000238348 4.83614 0.336044 4.50018 0.75 4.5L4.5 4.49805V0.75C4.50024 0.335993 4.83594 4.39526e-08 5.25 0Z" fill="#F9F9FB"/>
  </g>
</svg>
