<svg xmlns="http://www.w3.org/2000/svg" width="24" height="24" viewBox="0 0 24 24" fill="none">
  <path d="M17.0499 12.8517C17.0289 10.5047 18.9539 9.3637 19.0409 9.3097C17.9539 7.7507 16.2929 7.5307 15.7069 7.5117C14.2979 7.3677 12.9339 8.3517 12.2139 8.3517C11.4789 8.3517 10.3669 7.5257 9.17289 7.5507C7.63589 7.5747 6.20289 8.4537 5.41589 9.8247C3.79489 12.6127 4.99989 16.7517 6.55089 19.0287C7.32789 20.1457 8.23989 21.3967 9.44789 21.3507C10.6249 21.2997 11.0649 20.5787 12.4739 20.5787C13.8679 20.5787 14.2789 21.3507 15.5069 21.3217C16.7729 21.2997 17.5589 20.1997 18.3099 19.0737C19.2069 17.7907 19.5649 16.5357 19.5799 16.4727C19.5499 16.4627 17.0739 15.5187 17.0499 12.8517Z" fill="#2E2E38"/>
  <path d="M14.8309 6.0087C15.4599 5.2307 15.8879 4.1667 15.7659 3.0867C14.8529 3.1267 13.7029 3.7027 13.0479 4.4637C12.4649 5.1397 11.9509 6.2417 12.0899 7.2797C13.1149 7.3547 14.1759 6.7817 14.8309 6.0087Z" fill="#2E2E38"/>
</svg>
