<svg width="24" height="24" viewBox="0 0 24 24" fill="none" xmlns="http://www.w3.org/2000/svg">
<mask id="path-1-inside-1_2003_1787" fill="white">
<path d="M16.25 20C16.6642 20 17 20.3358 17 20.75C17 21.1642 16.6642 21.5 16.25 21.5H7.75C7.33579 21.5 7 21.1642 7 20.75C7 20.3358 7.33579 20 7.75 20H16.25ZM12.0039 2C16.4222 2.00003 20.0039 5.58174 20.0039 10V13.6084C20.004 14.1937 20.1773 14.7659 20.502 15.2529L20.7422 15.6133C20.9103 15.8655 21 16.1618 21 16.4648C21 17.3127 20.3127 18 19.4648 18H4.53516C3.68732 18 3.00001 17.3127 3 16.4648C3 16.1618 3.08971 15.8655 3.25781 15.6133L3.50195 15.2471C3.82925 14.7561 4.00391 14.1789 4.00391 13.5889V10C4.00391 5.58172 7.58563 2 12.0039 2Z"/>
</mask>
<path d="M16.25 21.5V23V23V21.5ZM7.75 20V18.5V18.5V20ZM12.0039 2L12.0039 0.5H12.0039V2ZM20.0039 13.6084H18.5039V13.6086L20.0039 13.6084ZM20.502 15.2529L19.2539 16.085V16.085L20.502 15.2529ZM20.7422 15.6133L21.9903 14.7813L21.9903 14.7812L20.7422 15.6133ZM21 16.4648L22.5 16.4649V16.4648H21ZM19.4648 18V19.5H19.4649L19.4648 18ZM4.53516 18L4.53513 19.5H4.53516V18ZM3 16.4648H1.5V16.4649L3 16.4648ZM3.25781 15.6133L2.00974 14.7812L2.00972 14.7813L3.25781 15.6133ZM3.50195 15.2471L2.25388 14.415L3.50195 15.2471ZM16.25 20V21.5C15.8358 21.5 15.5 21.1642 15.5 20.75H17H18.5C18.5 19.5074 17.4926 18.5 16.25 18.5V20ZM17 20.75H15.5C15.5 20.3358 15.8358 20 16.25 20V21.5V23C17.4926 23 18.5 21.9926 18.5 20.75H17ZM16.25 21.5V20H7.75V21.5V23H16.25V21.5ZM7.75 21.5V20C8.16421 20 8.5 20.3358 8.5 20.75H7H5.5C5.5 21.9926 6.50736 23 7.75 23V21.5ZM7 20.75H8.5C8.5 21.1642 8.16421 21.5 7.75 21.5V20V18.5C6.50736 18.5 5.5 19.5074 5.5 20.75H7ZM7.75 20V21.5H16.25V20V18.5H7.75V20ZM12.0039 2L12.0039 3.5C15.5937 3.50002 18.5039 6.41017 18.5039 10H20.0039H21.5039C21.5039 4.7533 17.2506 0.50003 12.0039 0.5L12.0039 2ZM20.0039 10H18.5039V13.6084H20.0039H21.5039V10H20.0039ZM20.0039 13.6084L18.5039 13.6086C18.504 14.49 18.765 15.3516 19.2539 16.085L20.502 15.2529L21.75 14.4209C21.5896 14.1802 21.5039 13.8974 21.5039 13.6082L20.0039 13.6084ZM20.502 15.2529L19.2539 16.085L19.4941 16.4453L20.7422 15.6133L21.9903 14.7812L21.75 14.4209L20.502 15.2529ZM20.7422 15.6133L19.4941 16.4453C19.4979 16.4511 19.5 16.4579 19.5 16.4648H21H22.5C22.5 15.8657 22.3227 15.2799 21.9903 14.7813L20.7422 15.6133ZM21 16.4648L19.5 16.4648C19.5 16.4724 19.4987 16.4759 19.4979 16.4781C19.4965 16.4812 19.494 16.4854 19.4897 16.4897C19.4854 16.494 19.4812 16.4965 19.4781 16.4979C19.4759 16.4987 19.4724 16.5 19.4648 16.5L19.4648 18L19.4649 19.5C21.1411 19.5 22.5 18.1411 22.5 16.4649L21 16.4648ZM19.4648 18V16.5H4.53516V18V19.5H19.4648V18ZM4.53516 18L4.53518 16.5C4.52756 16.5 4.52407 16.4987 4.52195 16.4979C4.51882 16.4965 4.51458 16.494 4.51031 16.4897C4.50603 16.4854 4.50347 16.4812 4.50215 16.4781C4.50125 16.4759 4.5 16.4724 4.5 16.4648L3 16.4648L1.5 16.4649C1.50003 18.1411 2.85889 19.5 4.53513 19.5L4.53516 18ZM3 16.4648H4.5C4.5 16.4579 4.50207 16.4511 4.50591 16.4453L3.25781 15.6133L2.00972 14.7813C1.67734 15.2799 1.5 15.8657 1.5 16.4648H3ZM3.25781 15.6133L4.50589 16.4453L4.75003 16.0791L3.50195 15.2471L2.25388 14.415L2.00974 14.7812L3.25781 15.6133ZM3.50195 15.2471L4.75003 16.0791C5.2417 15.3416 5.50391 14.4749 5.50391 13.5889H4.00391H2.50391C2.50391 13.883 2.4168 14.1706 2.25388 14.415L3.50195 15.2471ZM4.00391 13.5889H5.50391V10H4.00391H2.50391V13.5889H4.00391ZM4.00391 10H5.50391C5.50391 6.41015 8.41406 3.5 12.0039 3.5V2V0.5C6.7572 0.5 2.50391 4.75329 2.50391 10H4.00391Z" fill="#2E2E38" mask="url(#path-1-inside-1_2003_1787)"/>
</svg>
