<svg xmlns="http://www.w3.org/2000/svg" width="24" height="24" viewBox="0 0 24 24" fill="none">
  <path d="M16.4746 6.46973C16.7675 6.17715 17.2433 6.17694 17.5361 6.46973C17.8285 6.76251 17.8285 7.23747 17.5361 7.53027L13.0645 12L17.5342 16.4697C17.8267 16.7626 17.8269 17.2375 17.5342 17.5303C17.2414 17.8231 16.7666 17.8229 16.4736 17.5303L12.0039 13.0605L7.53516 17.5303C7.24226 17.8231 6.76748 17.8231 6.47461 17.5303C6.18187 17.2374 6.18184 16.7626 6.47461 16.4697L10.9434 12L6.47363 7.53027C6.1808 7.23738 6.18076 6.7626 6.47363 6.46973C6.76651 6.17689 7.24129 6.1769 7.53418 6.46973L12.0039 10.9395L16.4746 6.46973Z" fill="#2E2E38"/>
</svg>