<svg width="20" height="20" viewBox="0 0 20 20" fill="none" xmlns="http://www.w3.org/2000/svg">
<path d="M10 5.83301C9.07963 5.83301 8.33318 5.08732 8.33301 4.16699C8.33301 3.24652 9.07953 2.5 10 2.5C10.9203 2.50018 11.666 3.24663 11.666 4.16699C11.6658 5.08721 10.9202 5.83283 10 5.83301ZM10 11.667C9.07953 11.667 8.33301 10.9205 8.33301 10C8.33301 9.07952 9.07953 8.33301 10 8.33301C10.9203 8.33318 11.666 9.07963 11.666 10C11.666 10.9204 10.9203 11.6668 10 11.667ZM10 17.5C9.07953 17.5 8.33301 16.7535 8.33301 15.833C8.33318 14.9127 9.07963 14.167 10 14.167C10.9202 14.1672 11.6658 14.9128 11.666 15.833C11.666 16.7534 10.9203 17.4998 10 17.5Z" fill="#8D8D9A"/>
</svg>
