<svg xmlns="http://www.w3.org/2000/svg" width="24" height="24" viewBox="0 0 24 24" fill="none">
  <path d="M21.805 10.041H21V10H12V14H17.651C16.827 16.329 14.613 18 12 18C8.686 18 6 15.314 6 12C6 8.686 8.686 6 12 6C13.529 6 14.921 6.577 15.983 7.517L18.809 4.691C17.023 3.033 14.634 2 12 2C6.477 2 2 6.477 2 12C2 17.523 6.477 22 12 22C17.523 22 22 17.523 22 12C22 11.327 21.931 10.669 21.805 10.041Z" fill="#FFC107"/>
  <path d="M3.153 7.346L6.438 9.755C7.326 7.554 9.481 6 12 6C13.529 6 14.921 6.577 15.983 7.517L18.809 4.691C17.023 3.033 14.634 2 12 2C8.159 2 4.828 4.173 3.153 7.346Z" fill="#FF3D00"/>
  <path d="M12 22C14.583 22 16.93 21.012 18.705 19.41L15.61 16.796C14.571 17.574 13.299 18.001 12 18C9.399 18 7.19 16.342 6.358 14.027L3.097 16.54C4.752 19.778 8.111 22 12 22Z" fill="#4CAF50"/>
  <path d="M21.805 10.041H21V10H12V14H17.651C17.257 15.111 16.549 16.079 15.609 16.796L15.61 16.796L18.705 19.41C18.481 19.613 22 17 22 12C22 11.327 21.931 10.669 21.805 10.041Z" fill="#1976D2"/>
</svg>
