<svg preserveAspectRatio="none" width="100%" height="100%" overflow="visible" viewBox="0 0 29 29" fill="none" xmlns="http://www.w3.org/2000/svg">
  <path d="M21.4545 1H7.54545C5.80949 1 4.14463 1.68961 2.91712 2.91712C1.68961 4.14463 1 5.80949 1 7.54545V21.4545C1 23.1905 1.68961 24.8554 2.91712 26.0829C4.14463 27.3104 5.80949 28 7.54545 28H18.7431C19.6029 28 20.4542 27.8307 21.2485 27.5016C22.0428 27.1725 22.7645 26.6902 23.3724 26.0822L26.0822 23.3724C26.6902 22.7645 27.1725 22.0428 27.5016 21.2485C27.8307 20.4542 28 19.6029 28 18.7431V7.54545C28 5.80949 27.3104 4.14463 26.0829 2.91712C24.8554 1.68961 23.1905 1 21.4545 1Z" stroke="currentColor" stroke-width="2" stroke-linecap="round" stroke-linejoin="round" />
  <path d="M28 17.8175H22.8629C21.5248 17.8175 20.2415 18.349 19.2953 19.2953C18.349 20.2415 17.8175 21.5248 17.8175 22.8629V27.9993M7.72656 7.72656H20.3402M7.72656 14.4538H16.1357" stroke="currentColor" stroke-width="2" stroke-linecap="round" stroke-linejoin="round" />
</svg>
