<svg xmlns="http://www.w3.org/2000/svg" width="18" height="18" viewBox="0 0 18 18" fill="none">
  <path d="M12.4773 2.25H5.52273C4.65475 2.25 3.82231 2.5948 3.20856 3.20856C2.5948 3.82231 2.25 4.65475 2.25 5.52273V12.4773C2.25 13.3453 2.5948 14.1777 3.20856 14.7914C3.82231 15.4052 4.65475 15.75 5.52273 15.75H11.1215C11.5514 15.75 11.9771 15.6653 12.3743 15.5008C12.7714 15.3363 13.1323 15.0951 13.4362 14.7911L14.7911 13.4362C15.0951 13.1323 15.3363 12.7714 15.5008 12.3743C15.6653 11.9771 15.75 11.5514 15.75 11.1215V5.52273C15.75 4.65475 15.4052 3.82231 14.7914 3.20856C14.1777 2.5948 13.3453 2.25 12.4773 2.25Z" stroke="#F9F9FB" stroke-width="1.125" stroke-linecap="round" stroke-linejoin="round" />
  <path d="M15.75 10.6587H13.1815C12.5124 10.6587 11.8707 10.9245 11.3976 11.3976C10.9245 11.8707 10.6587 12.5124 10.6587 13.1815V15.7496M5.61328 5.61328H11.9201M5.61328 8.97692H9.81783" stroke="#F9F9FB" stroke-width="1.125" stroke-linecap="round" stroke-linejoin="round" />
</svg>
