<svg width="20" height="20" viewBox="0 0 20 20" fill="none" xmlns="http://www.w3.org/2000/svg">
<path d="M10.001 1.99609C14.4188 1.99609 18.0008 5.57735 18.001 9.99512C18.001 14.413 14.4189 17.9951 10.001 17.9951C5.58321 17.9949 2.00195 14.4129 2.00195 9.99512C2.00212 5.57745 5.58331 1.99626 10.001 1.99609Z" fill="#6C68D9"/>
<path d="M12.3984 6.79688C12.8402 6.79688 13.1983 7.15502 13.1983 7.59681V12.1166C13.1983 12.7129 12.7149 13.1963 12.1185 13.1963C11.7899 13.1963 11.4791 13.0466 11.2742 12.7896L8.42318 9.21308C8.41492 9.20271 8.40238 9.19668 8.38913 9.19668C8.36507 9.19668 8.34557 9.21618 8.34557 9.24023V12.423C8.34557 12.8501 7.99932 13.1963 7.5722 13.1963C7.14508 13.1963 6.79883 12.8501 6.79883 12.423V7.87909C6.79883 7.2814 7.28335 6.79688 7.88104 6.79688C8.21487 6.79688 8.53002 6.95094 8.73506 7.21438L11.508 10.777C11.5175 10.7893 11.5323 10.7965 11.5479 10.7965C11.5758 10.7965 11.5984 10.7739 11.5984 10.746V7.59681C11.5984 7.15502 11.9566 6.79688 12.3984 6.79688Z" fill="#F9F9FB"/>
</svg>
