<svg xmlns="http://www.w3.org/2000/svg" width="24" height="24" viewBox="0 0 24 24" fill="none">
  <mask id="path-1-inside-1_3001_33017" fill="white">
    <path fill-rule="evenodd" clip-rule="evenodd" d="M20.7776 6.37448C21.9032 7.5001 21.9022 9.32541 20.7753 10.4497L10.4437 20.7576C9.9038 21.2963 9.17226 21.5988 8.40958 21.5988H5.28039C3.68981 21.5988 2.40039 20.3094 2.40039 18.7188V15.5898C2.40039 14.827 2.70297 14.0954 3.24174 13.5555L13.5504 3.22463C14.6748 2.09786 16.5 2.09687 17.6256 3.22244L20.7776 6.37448Z"/>
  </mask>
  <path d="M17.6256 3.22244L16.5649 4.2831L17.6256 3.22244ZM3.24174 13.5555L4.30354 14.615L3.24174 13.5555ZM10.4437 20.7576L11.5032 21.8195L10.4437 20.7576ZM20.7776 6.37448L19.7169 7.43514L20.7776 6.37448ZM20.7753 10.4497L19.7158 9.38787L9.38427 19.6957L10.4437 20.7576L11.5032 21.8195L21.8347 11.5116L20.7753 10.4497ZM8.40958 21.5988V20.0988H5.28039V21.5988V23.0988H8.40958V21.5988ZM2.40039 18.7188H3.90039V15.5898H2.40039H0.900391V18.7188H2.40039ZM3.24174 13.5555L4.30354 14.615L14.6122 4.28415L13.5504 3.22463L12.4887 2.1651L2.17994 12.496L3.24174 13.5555ZM17.6256 3.22244L16.5649 4.2831L19.7169 7.43514L20.7776 6.37448L21.8383 5.31382L18.6862 2.16178L17.6256 3.22244ZM13.5504 3.22463L14.6122 4.28415C15.151 3.74424 16.0256 3.74377 16.5649 4.2831L17.6256 3.22244L18.6862 2.16178C16.9744 0.449983 14.1986 0.451475 12.4887 2.1651L13.5504 3.22463ZM2.40039 15.5898H3.90039C3.90039 15.2243 4.04538 14.8737 4.30354 14.615L3.24174 13.5555L2.17994 12.496C1.36056 13.3171 0.900391 14.4297 0.900391 15.5898H2.40039ZM5.28039 21.5988V20.0988C4.51824 20.0988 3.90039 19.481 3.90039 18.7188H2.40039H0.900391C0.900391 21.1378 2.86138 23.0988 5.28039 23.0988V21.5988ZM10.4437 20.7576L9.38427 19.6957C9.12556 19.9539 8.77503 20.0988 8.40958 20.0988V21.5988V23.0988C9.56949 23.0988 10.682 22.6387 11.5032 21.8195L10.4437 20.7576ZM20.7753 10.4497L21.8347 11.5116C23.5486 9.8017 23.5501 7.0257 21.8383 5.31382L20.7776 6.37448L19.7169 7.43514C20.2563 7.97449 20.2558 8.84912 19.7158 9.38787L20.7753 10.4497Z" fill="#2E2E38" mask="url(#path-1-inside-1_3001_33017)"/>
  <path d="M18.0002 12.3376L11.6621 6" stroke="#2E2E38" stroke-width="1.5"/>
</svg>