<svg width="16" height="16" viewBox="0 0 16 16" fill="none" xmlns="http://www.w3.org/2000/svg">
<path d="M7.99902 2.73438C8.33029 2.73438 8.59846 3.00276 8.59863 3.33398V7.4043H12.6709C13.002 7.40447 13.2713 7.67279 13.2715 8.00391C13.2715 8.33517 13.0021 8.60334 12.6709 8.60352H8.59863V12.667C8.59863 12.9984 8.33039 13.2676 7.99902 13.2676C7.66765 13.2676 7.39941 12.9984 7.39941 12.667V8.60352H3.33789C3.00652 8.60352 2.73828 8.33528 2.73828 8.00391C2.73846 7.67269 3.00663 7.4043 3.33789 7.4043H7.39941V3.33398C7.39959 3.00276 7.66776 2.73438 7.99902 2.73438Z" fill="#8D8D9A"/>
</svg>
