<svg preserveAspectRatio="none" width="100%" height="100%" overflow="visible" style="display: block;" viewBox="0 0 16.0579 16.0579" fill="none" xmlns="http://www.w3.org/2000/svg">
<path id="Union" d="M6.83203 0.00878906C10.2654 0.182678 12.996 3.0215 12.9961 6.49805L12.9873 6.83203C12.9144 8.27083 12.3723 9.5852 11.5127 10.6279L15.875 14.9912C16.1188 15.2353 16.119 15.631 15.875 15.875C15.631 16.119 15.2353 16.1188 14.9912 15.875L10.6279 11.5127C9.50508 12.4386 8.06704 12.9961 6.49805 12.9961L6.16309 12.9873C2.84077 12.8185 0.17706 10.1545 0.00878906 6.83203L0 6.49805C0.000136059 2.90953 2.90953 0.000136062 6.49805 0L6.83203 0.00878906ZM6.49805 1.25C3.59988 1.25014 1.25014 3.59988 1.25 6.49805C1.25005 9.39628 3.59983 11.746 6.49805 11.7461C9.39633 11.746 11.746 9.39633 11.7461 6.49805C11.746 3.59983 9.39628 1.25005 6.49805 1.25Z" fill="var(--fill-0, #8D8D9A)"/>
</svg>
