<svg xmlns="http://www.w3.org/2000/svg" width="24" height="24" viewBox="0 0 24 24" fill="none">
  <path d="M5.46995 6.01662V18.5306C5.46981 18.888 5.5401 19.2419 5.6768 19.5721C5.8135 19.9022 6.01392 20.2023 6.26661 20.455C6.51931 20.7077 6.81932 20.9081 7.14951 21.0448C7.47969 21.1815 7.83358 21.2518 8.19095 21.2516H15.8089C16.5303 21.2516 17.2222 20.9651 17.7323 20.455C18.2424 19.9449 18.5289 19.253 18.5289 18.5316V6.01562M3.29395 6.01662H20.7059" stroke="#E11D48" stroke-width="1.5" stroke-linecap="round" stroke-linejoin="round"/>
  <path d="M8.73535 6.015V4.382C8.73509 4.16753 8.77716 3.95511 8.85914 3.75692C8.94113 3.55873 9.06142 3.37867 9.21312 3.22706C9.36482 3.07545 9.54496 2.95527 9.74319 2.87341C9.94143 2.79154 10.1539 2.74961 10.3684 2.75H13.6324C13.8468 2.74961 14.0593 2.79154 14.2575 2.87341C14.4557 2.95527 14.6359 3.07545 14.7876 3.22706C14.9393 3.37867 15.0596 3.55873 15.1416 3.75692C15.2236 3.95511 15.2656 4.16753 15.2654 4.382V6.015M9.82435 16.992V11.553M14.1774 16.992V11.553" stroke="#E11D48" stroke-width="1.5" stroke-linecap="round" stroke-linejoin="round"/>
</svg>