<svg width="24" height="24" viewBox="0 0 24 24" fill="none" xmlns="http://www.w3.org/2000/svg">
<path d="M16.4727 6.46973C16.7656 6.17715 17.2414 6.17694 17.5342 6.46973C17.8266 6.76251 17.8265 7.23747 17.5342 7.53027L13.0625 12L17.5322 16.4697C17.8248 16.7626 17.825 17.2375 17.5322 17.5303C17.2394 17.8231 16.7646 17.8229 16.4717 17.5303L12.002 13.0605L7.5332 17.5303C7.2403 17.8231 6.76552 17.8231 6.47266 17.5303C6.17992 17.2374 6.17989 16.7626 6.47266 16.4697L10.9414 12L6.47168 7.53027C6.17884 7.23738 6.17881 6.7626 6.47168 6.46973C6.76456 6.17689 7.23934 6.1769 7.53223 6.46973L12.002 10.9395L16.4727 6.46973Z" fill="#2E2E38"/>
</svg>
