<svg width="16" height="16" viewBox="0 0 16 16" fill="none" xmlns="http://www.w3.org/2000/svg">
<path d="M10.9111 4.24263C11.1454 4.00832 11.5254 4.00734 11.7597 4.24165C11.994 4.47597 11.993 4.85599 11.7587 5.09029L8.84857 7.99947L11.7577 10.9086C11.9921 11.143 11.993 11.523 11.7587 11.7573C11.5244 11.9916 11.1444 11.9906 10.9101 11.7563L8.00091 8.84712L5.09271 11.7563C4.85839 11.9906 4.47839 11.9906 4.24407 11.7563C4.01025 11.522 4.01003 11.1428 4.24407 10.9086L7.15325 7.99947L4.24407 5.09029C4.00977 4.85599 4.0098 4.47695 4.24407 4.24263C4.47839 4.00832 4.85742 4.00832 5.09173 4.24263L8.00091 7.15181L10.9111 4.24263Z" fill="#6C68D9"/>
</svg>
